# xmcd
#
# Track frame offsets:
#	150
#	16202
#	36028
#	48774
#	62681
#	83526
#	94432
#	103257
#	115796
#	133592
#	158494
#	178608
#
# Disc length: 2659 seconds
#
# Revision: 1
# Processed by: cddbd v1.5.1PL0 Copyright (c) Steve Scherf et al.
# Submitted via: audiograbber 1.83.01
#
DISCID=8d0a610c
DTITLE=Planet Orange - Bungalow Soul
DYEAR=1900
DGENRE=Alternative
TTITLE0=orange man
TTITLE1=when the bus comes down
TTITLE2=flower boy
TTITLE3=wobble
TTITLE4=roses
TTITLE5=cut wood
TTITLE6=see you in the mirror
TTITLE7=who's that nose
TTITLE8=holly's will
TTITLE9=tingeling
TTITLE10=bungalow soul
TTITLE11=was it him
EXTD=
EXTT0=
EXTT1=
EXTT2=
EXTT3=
EXTT4=
EXTT5=
EXTT6=
EXTT7=
EXTT8=
EXTT9=
EXTT10=
EXTT11=
PLAYORDER=
